<?xml version="1.0" encoding="utf-8"?>
<!-- Generator: Adobe Illustrator 16.0.0, SVG Export Plug-In . SVG Version: 6.00 Build 0)  -->
<!DOCTYPE svg PUBLIC "-//W3C//DTD SVG 1.1//EN" "http://www.w3.org/Graphics/SVG/1.1/DTD/svg11.dtd">
<svg version="1.1" id="Layer_1" xmlns="http://www.w3.org/2000/svg" xmlns:xlink="http://www.w3.org/1999/xlink" x="0px" y="0px"
	 width="512px" height="512px" viewBox="0 0 512 512" enable-background="new 0 0 512 512" xml:space="preserve">
<path fill="#FFFFFF" d="M512,256c0,141.455-114.546,256-256,256S0,397.455,0,256C0,114.546,114.546,0,256,0S512,114.546,512,256z"/>
<path fill="#343A40" d="M496.941,256c0,133.134-107.809,240.941-240.941,240.941C122.866,496.942,15.058,389.134,15.058,256
	C15.058,122.867,122.866,15.059,256,15.059C389.133,15.059,496.941,122.867,496.941,256z"/>
<g>
	<polygon fill="#F1F2F2" points="316.316,195.686 316.316,94.98 195.685,94.98 195.685,195.686 94.98,195.686 94.98,316.315 
		195.685,316.315 195.685,417.021 316.316,417.021 316.316,316.315 417.022,316.315 417.022,195.686 	"/>
	<polygon fill="#108A56" points="276.195,235.804 316.316,195.686 316.316,94.98 195.685,94.98 195.685,195.686 94.98,195.686 
		94.98,316.315 195.685,316.315 235.804,276.196 	"/>
</g>
</svg>
