<?xml version="1.0" encoding="utf-8"?>
<!-- Generator: Adobe Illustrator 16.0.0, SVG Export Plug-In . SVG Version: 6.00 Build 0)  -->
<!DOCTYPE svg PUBLIC "-//W3C//DTD SVG 1.1//EN" "http://www.w3.org/Graphics/SVG/1.1/DTD/svg11.dtd">
<svg version="1.1" id="Layer_1" xmlns="http://www.w3.org/2000/svg" xmlns:xlink="http://www.w3.org/1999/xlink" x="0px" y="0px"
	 width="1404.083px" height="1401.648px" viewBox="0 0 1404.083 1401.648" enable-background="new 0 0 1404.083 1401.648"
	 xml:space="preserve">
<path fill-rule="evenodd" clip-rule="evenodd" fill="#99D4EA" d="M38.136,924.607c-2.576-3.123-0.62-7.011-1.919-10.532
	c-3.619-9.811-7.194-19.716-9.631-29.861c-2.026-8.443-4.695-16.73-6.166-25.355c-0.946-5.551-3.108-10.976-3.915-16.615
	c-1.229-8.592-3.236-17.053-4.89-25.537c-1.795-9.209-3.366-18.535-4.444-27.739c-1.143-9.756-4.306-19.397-2.526-29.647
	c0.952-5.484-0.928-11.426-1.28-17.178c-0.827-13.476-2.769-27.037-1.95-40.423c1.271-20.8-0.131-41.724,3.401-62.445
	c1.827-10.718,2.03-21.72,2.813-32.604c0.276-3.847,2.47-7.051,2.676-11.041c0.723-13.929,4.841-27.329,7.123-41.013
	c2.801-16.793,7.473-33.104,12.262-49.308c3.349-11.328,6.652-22.775,11.197-33.828c3.498-8.505,6.306-17.407,8.994-26.257
	c1.705-5.612,4.808-10.517,6.817-15.983c3.354-9.126,8.134-17.717,12.058-26.645c7.851-17.864,17.241-34.997,26.895-51.848
	c6.419-11.206,13.431-22.27,20.617-33.135c8.565-12.95,18.246-25.109,26.364-38.38c3.589-5.867,9.361-10.36,13.313-16.054
	c8.692-12.523,20.092-22.702,29.294-34.797c4.785-6.291,11.316-11.226,16.778-17.036c10.075-10.718,20.755-20.784,31.662-30.639
	c11.312-10.221,22.65-20.385,35.129-29.204c9.063-6.405,16.832-14.483,26.313-20.373c12.466-7.744,24.422-16.262,36.976-23.913
	c7.239-4.412,14.09-9.628,21.626-13.663c10.287-5.509,20.385-11.365,31.102-16.081c7.484-3.294,14.637-7.337,21.995-10.926
	c4.303-2.098,8.686-4.04,13.09-5.916c19.915-8.484,40.088-16.289,60.803-22.616c1.664-0.508,2.885-1.58,4.363-2.287
	c1.846,3.129,4.681,4.941,7.895,6.529c38.519,19.035,76.707,38.726,115.008,58.194c22.862,11.621,45.896,22.908,68.694,34.648
	c27.828,14.329,55.957,28.063,83.673,42.608c2.51,1.316,5.217,2.201,7.633,3.711c5.479,3.425,6.264,5.773,3.432,11.541
	c-4.844,9.866-9.955,19.599-14.973,29.377c-11.631,22.668-22.813,45.562-34.436,68.231c-23.708,46.235-47.104,92.629-70.535,139.005
	c-6.382,12.63-12.946,25.167-19.274,37.825c-1.105,2.211-1.939,4.651-4.244,6.042c-29.186,9.562-56.301,23.131-80.162,42.591
	c-25.392,20.707-46.291,45.21-61.874,74.241c-8.784,16.364-15.54,33.467-20.563,51.229c-2.382,8.422-3.362,17.302-5.223,25.851
	c-3.817,17.543-2.668,35.144-2.478,52.706c0.196,18.128,3.287,35.997,8.313,53.47c0.455,1.583,1.372,3.082,0.577,4.805
	c-0.593,0.826-1.3,0.592-2.024,0.227c-10.238-5.444-20.469-10.905-30.86-16.07c-14.558-7.234-28.994-14.714-43.491-22.066
	c-15.523-7.873-30.997-15.854-46.694-23.383c-30.2-15.426-60.383-30.886-90.693-46.096c-9.35-4.69-18.841-9.106-28.032-14.107
	c-11.224-5.434-22.146-11.469-33.439-16.77c-4.999-2.347-6.237-2.041-9.124,2.892c-6.146,10.503-10.996,21.667-16.64,32.43
	c-9.813,18.714-19.214,37.646-28.678,56.542c-5.579,11.138-11.373,22.164-16.939,33.309c-5.378,9.497-10.15,19.296-14.555,29.273
	c-1.073,2.432-1.961,4.934-3.979,6.791c-1.275,1.063-1.948,2.432-2.056,4.09c-1.222,4.784-3.964,8.803-6.479,12.938
	c-6.781,12.551-13.004,25.385-19.484,38.088c-10.408,20.402-20.536,40.947-31.126,61.255c-0.642,1.475-2.289,2.255-2.681,3.903
	C39.242,922.659,39.098,923.829,38.136,924.607z"/>
<path fill-rule="evenodd" clip-rule="evenodd" fill="#66AEC9" d="M627.955,472.83c17.044-33.7,34.043-67.425,51.149-101.094
	c11.063-21.774,22.35-43.436,33.415-65.209c10.164-20.004,20.131-40.108,30.25-60.137c8.898-17.611,17.9-35.172,26.83-52.768
	c3.672-7.238,3.154-8.558-4.141-12.186c-12.496-6.216-24.973-12.477-37.434-18.765c-34.298-17.309-68.587-34.635-102.875-51.967
	c-26.536-13.414-53.07-26.831-79.59-40.277c-18.844-9.555-37.641-19.201-56.513-28.697c-2.643-1.33-4.524-2.756-3.973-6.004
	c8.786-2.997,17.656-5.77,26.333-9.054c8.882-3.361,18.214-4.958,27.344-7.214c10.089-2.492,20.168-5.166,30.516-6.757
	c9.862-1.517,19.575-4.059,29.491-5.411c13.757-1.876,27.476-4.713,41.291-5.314c17.553-0.763,35.055-2.178,52.592-3.069
	c13.821-0.703,27.495,1.772,41.317,1.35c17.041-0.521,33.84,2.796,50.766,4.059c17.707,1.322,34.939,5.356,52.408,7.928
	c11.041,1.625,22.25,3.898,32.945,7.088c11.289,3.365,23.107,4.916,34.002,8.986c17.791,6.646,36.193,11.523,53.67,19.013
	c13.031,5.585,26.221,10.778,39.188,16.548c10.283,4.575,19.521,11.17,30.307,14.721c5.336,1.756,9.363,6.272,14.738,8.199
	c2.311,1.389,4.785,2.466,7.139,3.774c16.441,9.938,32.787,19.972,48.711,30.785c9.959,6.764,19.174,14.561,29.537,20.8
	c6.469,3.895,12.205,9.167,17.746,14.378c3.643,3.426,8.012,5.769,11.602,9.249c13.428,13.026,27.703,25.114,40.959,38.389
	c10.789,10.807,20.561,22.454,31.146,33.354c11.734,12.085,21.043,25.997,31.828,38.751c14.047,16.61,24.652,35.474,36.771,53.349
	c11.523,17,20.865,35.168,30.008,53.501c6.324,12.687,11.77,25.755,17.811,38.544c8.748,18.519,14.674,37.994,21.264,57.258
	c1.051,3.071,1.047,6.504,1.531,9.769c-6.795,11.476-12.254,23.648-18.426,35.448c-12.277,23.47-23.855,47.296-35.871,70.899
	c-11.334,22.265-22.645,44.543-33.947,66.823c-11.908,23.473-23.797,46.954-35.619,70.47c-5.91,11.757-11.885,23.482-18.035,35.114
	c-3.518,6.654-5.703,7.24-12.369,3.804c-44.715-23.051-89.738-45.494-134.588-68.277c-30.736-15.614-61.463-31.244-92.234-46.79
	c-18.729-9.463-37.322-19.204-56.336-28.108c-4.313-7.152-6.527-15.231-10.025-22.762c-6.973-15.017-15.309-29.122-25.076-42.477
	c-14.252-19.484-30.949-36.594-50.105-51.158c-20.008-15.21-42.217-26.521-65.996-34.68c-13.564-4.654-27.414-8.254-41.633-10.173
	c-20.824-2.812-41.643-3.688-62.667-1.369c-14.783,1.631-29.267,4.177-43.518,8.295C630.31,474.128,628.631,475.193,627.955,472.83z
	"/>
<path fill-rule="evenodd" clip-rule="evenodd" fill="#47839B" d="M464.951,777.918c0.35,0.281,0.698,0.562,1.048,0.843
	c3.479,0.137,4.241,3.037,5.002,5.444c5.499,17.408,13.62,33.593,22.928,49.198c5.973,10.013,12.933,19.364,20.49,28.254
	c1.188,1.398,2.398,2.768,3.287,4.384c1.019,2.274,2.797,3.837,4.851,5.144c15.377,16.611,32.971,30.533,52.171,42.389
	c14.635,9.036,30.235,16.152,46.485,21.844c25.393,8.895,51.667,12.889,78.429,13.477c8.752,0.193,17.581-1.103,26.362-1.913
	c9.965-0.919,19.766-2.704,29.566-4.609c5.395-1.048,10.428-3.534,15.979-3.893c9.053-0.782,9.283-0.673,5.422,7.499
	c-6.615,13.998-13.574,27.828-20.713,41.574c-11.279,21.716-22.486,43.471-33.283,65.436c-5.432,11.053-11.182,21.953-16.826,32.903
	c-1.455,2.824-2.609,5.761-3.719,8.721c-0.23,0.929-0.648,1.765-1.26,2.498c-1.173,1.021-1.888,2.321-2.272,3.821
	c-0.252,0.615-0.61,1.164-1.019,1.685c-1.636,1.888-2.389,4.165-2.875,6.562c-0.852,2.158-1.456,4.443-3.14,6.177
	c-2.748,2.524-3.73,5.948-4.738,9.357c-0.396,1.328-1.069,2.503-1.969,3.55c-1.097,1.127-1.681,2.537-2.168,4
	c-0.16,0.418-0.368,0.812-0.598,1.194c-1.247,1.605-1.934,3.468-2.46,5.403c-0.253,0.644-0.623,1.214-1.056,1.746
	c-3.612,3.873-4.749,9.141-7.565,13.459c-0.183,0.401-0.398,0.787-0.618,1.168c-0.812,1.301-1.267,2.756-1.775,4.188
	c-0.162,0.415-0.367,0.806-0.599,1.185c-2.421,3.5-3.771,7.477-5.085,11.469c-0.259,0.895-0.672,1.709-1.258,2.432
	c-3.97,4.826-6.401,10.479-8.697,16.203c-0.15,0.439-0.345,0.859-0.564,1.267c-1.199,1.71-2.196,3.521-2.766,5.549
	c-2.828,5.836-5.88,11.556-8.762,17.362c-1.82,3.666-0.817,5.638,2.657,7.424c11.091,5.698,22.214,11.332,33.348,16.945
	c19.016,9.585,38.004,19.225,56.971,28.904c18.668,9.525,37.523,18.69,56.117,28.35c24.809,12.887,49.963,25.073,74.811,37.875
	c15.523,7.998,31.109,15.876,46.693,23.756c2.381,1.203,4.773,2.365,6.813,4.133c1.906,2.342,0.963,3.76-1.365,5.113
	c-1.328,0.773-2.988,0.305-4.102,1.455c-12.092,4.03-23.773,9.29-36.572,11.151c-5.85,0.851-11.506,2.959-17.279,4.366
	c-14.104,3.439-28.332,6.009-42.561,8.77c-17.723,3.438-35.537,5.898-53.51,7.166c-28.777,2.029-57.584,3.254-86.455,2.165
	c-48.206-1.817-95.734-8.458-142.585-19.878c-12.118-2.955-24.079-6.557-36.112-9.86c-3.234-1.271-6.773-1.585-9.907-3.167
	c-39.161-12.6-76.981-28.449-113.395-47.551c-23.285-12.215-45.679-25.963-67.438-40.767c-14.022-9.54-27.807-19.356-41.039-29.968
	c-21.932-17.588-42.831-36.273-62.659-56.241c-22.313-22.47-42.696-46.491-61.937-71.612
	c-13.336-17.412-24.743-36.014-36.713-54.309c-6.717-10.266-12.887-20.803-18.713-31.512c-4.622-8.498-9.12-17.127-12.978-26.072
	c-2.994-6.944-7.314-13.313-9.272-20.742c-2.02-2.348-2.741-5.323-3.909-8.082c-6.554-14.497-12.701-29.148-17.308-44.408
	c-1.391-4.608-3.091-9.123-4.65-13.682c0.002-1.291,0.003-2.582,0.005-3.872c3.683-1.708,5.559-4.96,7.256-8.399
	c1.827-3.703,3.683-7.394,5.523-11.09c0.167-0.422,0.372-0.826,0.592-1.221c1.224-2.131,2.221-4.377,3.339-6.559
	c0.172-0.393,0.382-0.769,0.6-1.137c0.654-1.063,1.181-2.195,1.697-3.332c0.164-0.384,0.36-0.75,0.562-1.115
	c0.504-0.914,0.935-1.865,1.374-2.813c0.168-0.393,0.367-0.768,0.573-1.141c0.519-0.934,0.963-1.905,1.443-2.858
	c0.191-0.388,0.428-0.745,0.688-1.088c0.676-0.854,0.99-1.886,1.376-2.882c0.142-0.417,0.322-0.814,0.515-1.208
	c0.828-1.557,1.534-3.174,2.347-4.737c0.187-0.4,0.414-0.778,0.654-1.147c0.831-1.046,1.243-2.3,1.719-3.522
	c0.347-0.842,0.756-1.649,1.227-2.428c2.727-4.311,5.172-8.752,6.522-13.718c4.72-9.615,9.608-19.144,14.454-28.692
	c9.929-17.24,17.904-35.474,27.035-53.119c8.37-14.901,15.542-30.417,23.371-45.595c13.834-26.818,27.246-53.85,40.971-80.722
	c2.437-4.771,4.604-5.341,8.962-3.135c11.374,5.758,22.625,11.76,34.131,17.259c20.845,10.569,41.713,21.093,62.547,31.687
	c16.112,8.191,32.196,16.441,48.437,24.379c2.656,1.298,4.896,3.438,7.936,3.954c20.62,10.992,41.646,21.186,62.464,31.788
	C425.95,758.075,445.427,768.042,464.951,777.918z"/>
<path fill-rule="evenodd" clip-rule="evenodd" fill="#4A91AC" d="M913.128,1368.841c0.748-1.508,2.43-1.354,3.66-1.963
	c2.055-1.016,2.447-2.289,1.285-4.172c-0.756-4.079-4.566-4.604-7.393-5.896c-12.424-5.676-24.236-12.536-36.477-18.522
	c-9.383-4.591-18.725-9.273-28.086-13.91c-16.373-8.111-32.316-17.059-48.91-24.754c-10.979-5.092-21.877-10.503-32.441-16.303
	c-13.711-7.525-27.729-14.428-41.652-21.469c-14.355-7.261-28.66-14.671-43.141-21.713c-11.776-5.727-23.56-11.6-35.11-17.845
	c-4.623-2.499-5.114-4.049-2.392-8.788c2.326-4.049,4.091-8.365,6.366-12.43c0.761-1.359,2.188-2.811,0.238-4.373
	c0.348-2.059,1.001-3.934,2.992-5.012c4.172-1.755,4.352-6.188,6.093-9.467c5.274-9.931,9.98-20.151,15.305-30.07
	c6.183-11.519,12.318-23.059,17.764-34.984c2.998-6.568,6.433-13.031,9.851-19.447c0.604-1.135,1.184-2.005-0.002-3.02
	c4.609-13.019,12.033-24.666,18.039-37.004c5.164-10.611,10.406-21.188,15.773-31.698c7.646-14.966,15.525-29.812,23.143-44.792
	c7.039-13.846,13.865-27.801,21.109-42.357c-2.893,0.355-4.957,0.608-7.023,0.861c0.141-2.728,2.539-2.765,4.254-3.324
	c39.984-13.059,74.193-35.222,102.516-66.158c21.217-23.174,37.445-49.548,48.379-79.195c7.488-20.309,12.342-41.139,14.146-62.617
	c1.252-14.889,0.879-29.838-0.381-44.773c-1.449-17.175-4.627-33.936-10.141-50.268c-0.609-1.81-1.461-3.841,0.258-5.641
	c4.311,0.209,7.84,2.611,11.48,4.433c25.666,12.843,51.266,25.814,76.834,38.852c18.146,9.253,36.156,18.778,54.324,27.989
	c21.766,11.034,43.66,21.814,65.453,32.798c17.311,8.725,34.547,17.595,51.824,26.389c8.279,4.215,16.674,8.22,24.824,12.673
	c4.354,2.38,6.646,0.91,8.615-2.969c3.521-6.941,7.252-13.777,10.773-20.721c11.346-22.378,22.648-44.777,33.945-67.18
	c10.822-21.461,21.551-42.968,32.439-64.396c12.555-24.711,25.285-49.333,37.85-74.038c8.428-16.572,16.666-33.239,25.109-49.804
	c0.648-1.274,0.424-4.154,3.412-3.063c4.148,12.758,9.17,25.197,11.916,38.458c1.563,7.547,3.799,15.038,5.545,22.594
	c2.816,12.184,5.498,24.397,7.428,36.771c1.461,9.377,3.682,18.649,4.811,28.059c1.252,10.443,1.588,20.994,2.432,31.489
	c1.395,17.335,2.773,34.679,2.697,52.077c-0.238,54.758-5.73,108.959-18.268,162.318c-7.689,32.73-17.691,64.746-29.883,96.131
	c-9.602,24.715-20.758,48.669-32.836,72.203c-7.205,14.039-14.953,27.826-23.639,41.043c-2.264,3.166-4.172,6.551-6.066,9.943
	c-14.391,21.578-29.107,42.882-45.596,62.986c-11.838,14.432-23.965,28.582-36.809,42.08
	c-13.857,14.563-28.355,28.477-43.449,41.823c-21.836,19.308-44.635,37.323-68.729,53.644
	c-19.736,13.369-39.967,26.013-60.754,37.723c-1.428,0.804-3.104,1.166-4.664,1.733c-2.568,2.46-6.506,2.511-9,5.103
	c-12.307,5.91-24.398,12.345-37.008,17.52c-6.711,2.754-13.051,6.544-20.199,8.207c-2.988,0.695-5.604,2.039-7.973,3.934
	c-2.695,1.91-6.176,1.544-8.996,3.098c-10.199,3.313-20.393,6.645-30.604,9.92C916.677,1368.106,914.884,1368.419,913.128,1368.841z
	"/>
<path fill-rule="evenodd" clip-rule="evenodd" fill="#FFFFFF" d="M977.362,1041.52c0-18.328-0.09-36.656,0.021-54.984
	c0.141-23.166,11.74-38.617,34.028-44.377c14.49-3.746,29.168-3.197,43.235,2.156c17.298,6.582,25.494,20.129,26.816,38.047
	c0.576,7.791,0.123,15.654,0.328,23.482c0.078,2.973-0.855,4.16-3.961,4.105c-8.661-0.148-17.329-0.148-25.99,0.008
	c-3.307,0.061-4.353-1.199-4.268-4.414c0.181-6.828,0.155-13.664,0.02-20.494c-0.215-10.785-6.03-16.188-17.162-16.154
	c-11.085,0.031-17.053,5.455-17.086,16.262c-0.115,37.822-0.115,75.645,0.004,113.469c0.037,12.049,7.988,15.773,17.073,15.98
	c11.032,0.25,17.083-5.83,17.183-16.32c0.087-9.164,0.09-18.33-0.049-27.492c-0.045-3.021,0.55-4.6,4.08-4.518
	c8.826,0.207,17.66,0.092,26.491,0.068c1.972-0.004,3.698,0.031,3.604,2.775c-0.423,12.465,1.057,24.984-1.084,37.398
	c-3.01,17.453-13.021,28.83-29.977,33.752c-15.102,4.383-30.336,4.061-45.236-0.857c-17.552-5.795-27.973-22.002-28.072-42.906
	c-0.086-18.328-0.018-36.656-0.018-54.986C977.351,1041.52,977.356,1041.52,977.362,1041.52z"/>
<g>
	<path fill-rule="evenodd" clip-rule="evenodd" fill="#FFFFFF" d="M309.467,390.905c0-29.642,0-59.284,0-88.926
		c0-0.833-0.011-1.665,0.002-2.498c0.116-7.729,0.118-7.732,7.679-7.732c16.319-0.001,32.64-0.087,48.959,0.037
		c10.09,0.076,19.745,2.263,28.658,7.146c9.065,4.967,14.94,12.584,17.67,22.479c4.78,17.332,4.29,35.093,1.366,52.419
		c-3.861,22.889-19.733,32.438-41.546,34.717c-7.087,0.739-14.316,0.387-21.467,0.131c-4.183-0.149-5.462,1.305-5.433,5.448
		c0.163,22.979-0.042,45.962,0.185,68.94c0.046,4.593-1.214,6.069-5.847,5.857c-7.977-0.366-15.998-0.414-23.97,0.01
		c-5.26,0.279-6.387-1.723-6.354-6.605C309.564,451.855,309.468,421.379,309.467,390.905z"/>
	<path fill-rule="evenodd" clip-rule="evenodd" fill="#9AD5EA" d="M345.432,350.231c-0.001-8.658,0.066-17.317-0.038-25.975
		c-0.036-2.916,0.616-4.063,3.967-3.756c5.12,0.469,10.314,0.072,15.473,0.201c8.312,0.208,14.195,5.785,14.391,14.11
		c0.248,10.484,0.222,20.981,0.024,31.468c-0.151,7.984-6.608,14.025-15.029,14.33c-4.822,0.174-9.66-0.092-14.484,0.064
		c-3.288,0.106-4.387-1.306-4.343-4.469C345.511,367.549,345.433,358.889,345.432,350.231z"/>
</g>
<g>
	<path fill-rule="evenodd" clip-rule="evenodd" fill="#FFFFFF" d="M969.97,393.699c-0.005-30.996,0.075-61.992-0.098-92.988
		c-0.023-4.299,1.006-5.797,5.528-5.734c17.827,0.248,35.673-0.293,53.488,0.236c14.592,0.434,28.425,3.701,38.498,15.717
		c5.185,6.184,8.06,13.426,9.225,21.252c0.806,5.408,1.024,10.941,1.041,16.42c0.092,31.162,0.123,62.326-0.015,93.488
		c-0.031,7.135-0.611,14.297-2.925,21.16c-6.504,19.295-21.293,27.75-40.319,28.656c-20.12,0.959-40.319,0.172-60.481,0.363
		c-4.144,0.039-3.969-2.219-3.965-5.08C969.99,456.025,969.975,424.863,969.97,393.699z"/>
	<path fill-rule="evenodd" clip-rule="evenodd" fill="#67AEC9" d="M1005.901,393.632c0.003-21.488,0.096-42.979-0.081-64.467
		c-0.033-4.002,0.849-5.785,5.193-5.402c4.133,0.363,8.323,0.059,12.487,0.086c11.937,0.076,18.126,5.656,18.197,17.627
		c0.211,34.98,0.215,69.965-0.031,104.945c-0.085,12.088-6.129,17.41-18.269,17.455c-3.831,0.014-7.694-0.283-11.485,0.113
		c-4.701,0.49-6.214-0.902-6.144-5.891C1006.07,436.613,1005.897,415.123,1005.901,393.632z"/>
</g>
<g>
	<path fill-rule="evenodd" clip-rule="evenodd" fill="#FFFFFF" d="M309.554,1132.89c-3.191-0.598-2.582-2.957-2.199-5.031
		c3.352-18.135,6.768-36.26,10.145-54.391c5.9-31.691,11.789-63.383,17.676-95.074c2.429-13.07,4.881-26.135,7.229-39.219
		c0.525-2.926,1.773-4.041,4.943-3.994c13.317,0.191,26.641,0.191,39.958-0.01c3.377-0.051,4.559,1.104,5.138,4.314
		c4.27,23.709,8.691,47.393,13.103,71.076c7.305,39.223,14.635,78.438,21.97,117.654c0.305,1.629,0.985,3.252-0.52,4.656
		c-7.314,1.465-14.704,0.484-22.055,0.584c-3.871,0.053-7.848,0.916-11.662-0.592c-2.756-5.629-2.627-11.893-3.861-17.854
		c-1.211-5.85-2.139-11.771-2.895-17.697c-0.324-2.555-1.331-3.344-3.803-3.322c-10.978,0.096-21.957,0.131-32.934-0.006
		c-2.837-0.035-3.555,1.094-3.969,3.701c-1.661,10.49-3.662,20.926-5.389,31.406c-0.294,1.783-0.586,3.225-2.482,3.801
		C328.481,1133.972,319.017,1133.96,309.554,1132.89z"/>
	<path fill-rule="evenodd" clip-rule="evenodd" fill="#47849B" d="M366.435,972.798c1.525,9.096,3.098,18.184,4.566,27.289
		c3.25,20.156,6.445,40.322,9.671,60.482c1.019,6.369,1.029,6.367-5.284,6.365c-6.818,0-13.639-0.105-20.453,0.055
		c-3.199,0.074-4.393-0.58-3.784-4.219c3.315-19.809,6.374-39.66,9.507-59.5c1.604-10.156,3.176-20.318,4.763-30.477
		C365.759,972.796,366.097,972.796,366.435,972.798z"/>
</g>
<g>
	<path fill="#FFFFFF" d="M958,702c0,141.459-114.584,256-256,256c-141.417,0-256-114.541-256-256s114.583-256,256-256
		C843.416,446,958,560.541,958,702z"/>
	<path fill="#363C41" d="M928.771,702c0,125.313-101.437,226.771-226.75,226.771c-125.313,0-226.791-101.457-226.791-226.771
		c0-125.313,101.458-226.771,226.771-226.771C827.313,475.229,928.771,576.688,928.771,702z"/>
	<g>
		<polygon fill="#F3F3F3" points="758.791,645.229 758.791,550.448 645.229,550.448 645.229,645.229 550.469,645.229 
			550.469,758.75 645.229,758.75 645.229,853.541 758.791,853.541 758.791,758.75 853.541,758.75 853.541,645.229 		"/>
		<polygon fill="#0E8A57" points="721,682.99 758.791,645.229 758.791,550.448 645.229,550.448 645.229,645.229 550.469,645.229 
			550.469,758.75 645.229,758.75 683.01,721 		"/>
	</g>
</g>
</svg>
