<?xml version="1.0" encoding="utf-8"?>
<!-- Generator: Adobe Illustrator 16.0.0, SVG Export Plug-In . SVG Version: 6.00 Build 0)  -->
<!DOCTYPE svg PUBLIC "-//W3C//DTD SVG 1.1//EN" "http://www.w3.org/Graphics/SVG/1.1/DTD/svg11.dtd">
<svg version="1.1" xmlns="http://www.w3.org/2000/svg" xmlns:xlink="http://www.w3.org/1999/xlink" x="0px" y="0px"
	 width="252.999px" height="80px" viewBox="236.339 105.637 252.999 80" enable-background="new 236.339 105.637 252.999 80"
	 xml:space="preserve">
<g id="Layer_2">
	<rect x="236.339" y="105.637" fill="none" width="252.999" height="80"/>
</g>
<g id="Layer_1">
	<g>
		<polygon fill="#DBB139" points="357.997,158.137 474.965,158.137 470.993,162.178 354.034,162.178 		"/>
		<polygon fill="#DBB139" points="249.965,158.137 338.536,158.137 342.513,162.178 253.93,162.178 		"/>
		<g>
			<path fill="#5ABAA2" d="M350.45,177.952l-18.895-18.846c-5.163-5.061-8.008-11.837-8.008-19.08
				c0-14.954,12.201-27.12,27.199-27.12c3.736,0,7.36,0.743,10.772,2.21c9.95,4.292,16.379,14.069,16.379,24.91
				c0,7.23-2.801,14.001-7.887,19.066l-11.563,11.554l-7.635,7.579L350.45,177.952z M350.751,132.735
				c-4.377,0.063-7.938,3.641-7.938,7.979c0,4.356,3.563,7.943,7.944,7.998l0.106,0.504v-0.5c4.462,0,8.094-3.59,8.094-8.002
				C358.957,136.317,355.275,132.737,350.751,132.735z"/>
			<path fill="#FFFFFF" d="M350.748,113.406c3.76,0,7.345,0.78,10.575,2.169c9.471,4.085,16.076,13.487,16.076,24.451
				c0,7.378-2.959,13.951-7.739,18.712l-11.563,11.556l-7.327,7.272l-0.02-0.015l-18.842-18.799
				c-4.873-4.775-7.86-11.35-7.86-18.728C324.048,125.312,335.964,113.406,350.748,113.406 M350.863,149.215
				c4.739,0,8.594-3.746,8.594-8.5c0-4.74-3.968-8.479-8.709-8.479c-4.628,0.063-8.437,3.784-8.437,8.479
				c0,4.718,3.809,8.439,8.438,8.496C350.79,149.211,350.827,149.215,350.863,149.215 M350.748,112.406
				c-15.273,0-27.699,12.392-27.699,27.62c0,7.379,2.897,14.283,8.161,19.439l18.835,18.793l0.05,0.051l0.057,0.042l0.691,0.519
				l0.632-0.594l7.327-7.273l11.565-11.558c5.18-5.158,8.032-12.055,8.032-19.419c0-11.04-6.547-20.998-16.68-25.369
				C358.243,113.163,354.552,112.406,350.748,112.406L350.748,112.406z M350.873,148.215c-0.051-0.002-0.087-0.004-0.122-0.004
				c-4.097-0.05-7.438-3.412-7.438-7.496c0-4.068,3.342-7.424,7.449-7.479c4.237,0,7.695,3.354,7.695,7.479
				C358.457,144.848,355.054,148.211,350.873,148.215L350.873,148.215z"/>
		</g>
		<g enable-background="new    ">
			<g>
				<path fill="#5ABAA2" d="M274.069,153.492c-0.276,0-0.5-0.224-0.5-0.5V140.43l-4.071,7.634c-0.087,0.163-0.257,0.265-0.44,0.265
					h-4.718c-0.186,0-0.354-0.102-0.441-0.265l-4.071-7.634v12.562c0,0.276-0.224,0.5-0.5,0.5h-6.512c-0.276,0-0.5-0.224-0.5-0.5
					v-21.968c0-0.275,0.224-0.5,0.5-0.5h7.973c0.182,0,0.348,0.098,0.437,0.255l5.668,10.069l5.651-10.069
					c0.089-0.157,0.256-0.255,0.437-0.255h7.973c0.276,0,0.5,0.225,0.5,0.5l0.001,21.968c0,0.134-0.053,0.261-0.146,0.354
					s-0.222,0.146-0.354,0.146H274.069z"/>
				<path fill="#FFFFFF" d="M280.951,131.025l0.001,21.968h-6.883V138.43l-5.013,9.398h-4.718l-5.014-9.398v14.563h-6.512v-21.968
					h7.973l6.104,10.845l6.087-10.845H280.951 M280.951,130.025h-7.973c-0.362,0-0.695,0.194-0.872,0.511l-5.216,9.293l-5.231-9.294
					c-0.177-0.315-0.51-0.51-0.872-0.51h-7.973c-0.552,0-1,0.446-1,1v21.968c0,0.553,0.448,1,1,1h6.512c0.552,0,1-0.447,1-1V142.43
					l3.13,5.869c0.175,0.326,0.514,0.529,0.883,0.529h4.718c0.369,0,0.708-0.203,0.882-0.529l3.13-5.869v10.563c0,0.553,0.448,1,1,1
					h6.883c0.266,0,0.521-0.105,0.707-0.293c0.188-0.188,0.293-0.441,0.293-0.707l-0.001-21.968
					C281.951,130.471,281.504,130.025,280.951,130.025L280.951,130.025z"/>
			</g>
			<g>
				<path fill="#5ABAA2" d="M302.725,153.492c-0.207,0-0.393-0.128-0.467-0.321l-1.598-4.162h-7.972l-1.598,4.162
					c-0.074,0.193-0.261,0.321-0.468,0.321h-6.937c-0.167,0-0.324-0.084-0.417-0.224c-0.092-0.141-0.109-0.317-0.043-0.473
					l9.305-21.968c0.078-0.185,0.26-0.305,0.461-0.305h7.548c0.2,0,0.383,0.12,0.461,0.305l9.305,21.968
					c0.065,0.154,0.049,0.332-0.043,0.473c-0.094,0.14-0.25,0.224-0.418,0.224H302.725z M298.757,144.025l-2.081-5.362l-2.081,5.361
					L298.757,144.025z"/>
				<path fill="#FFFFFF" d="M300.543,131.025l9.305,21.968h-7.121l-1.721-4.484h-8.658l-1.722,4.484h-6.937l9.306-21.968H300.543
					 M299.487,144.525l-2.812-7.244l-2.813,7.243L299.487,144.525 M300.543,130.025h-7.548c-0.401,0-0.765,0.24-0.922,0.61
					l-9.305,21.968c-0.131,0.309-0.098,0.662,0.088,0.942c0.185,0.278,0.498,0.446,0.833,0.446h6.938
					c0.413,0,0.784-0.255,0.934-0.642l1.475-3.844h7.283l1.476,3.844c0.147,0.387,0.52,0.642,0.934,0.642h7.121
					c0.336,0,0.648-0.168,0.834-0.446c0.186-0.28,0.219-0.635,0.088-0.942l-9.306-21.968
					C301.305,130.265,300.943,130.025,300.543,130.025L300.543,130.025z M295.325,143.524l1.352-3.479l1.351,3.479L295.325,143.524
					L295.325,143.524z"/>
			</g>
			<g>
				<path fill="#5ABAA2" d="M312.586,153.493c-0.275,0-0.5-0.224-0.5-0.5v-21.969c0-0.275,0.225-0.5,0.5-0.5h10.692
					c1.615,0,3.033,0.12,4.215,0.357c1.195,0.238,2.298,0.625,3.273,1.147c1.11,0.59,1.983,1.394,2.595,2.383
					c0.613,0.997,0.925,2.19,0.925,3.546c0,1.088-0.22,2.139-0.651,3.122c-0.438,0.995-1.077,1.839-1.901,2.505
					c-0.484,0.396-1.026,0.771-1.607,1.105c-0.588,0.34-1.244,0.632-1.953,0.868c-0.697,0.233-1.467,0.418-2.288,0.551
					c-0.821,0.132-1.747,0.198-2.753,0.198h-3.125v6.685c0,0.276-0.225,0.5-0.5,0.5L312.586,153.493L312.586,153.493z
					 M320.006,141.206c0.645,0,1.252-0.005,1.823-0.014c0.554-0.009,1.044-0.043,1.455-0.1c0.339-0.045,0.701-0.135,1.08-0.266
					c0.357-0.124,0.629-0.259,0.806-0.398c0.401-0.313,0.672-0.627,0.805-0.938c0.138-0.329,0.209-0.8,0.209-1.397
					c0-0.506-0.146-0.924-0.441-1.282c-0.311-0.376-0.67-0.626-1.1-0.767c-0.619-0.213-1.206-0.336-1.753-0.367
					c-0.584-0.033-1.37-0.051-2.405-0.051h-0.479V141.206z"/>
				<path fill="#FFFFFF" d="M323.278,131.025c1.592,0,2.963,0.116,4.117,0.349c1.151,0.229,2.197,0.596,3.136,1.098
					c1.035,0.552,1.837,1.285,2.404,2.205c0.566,0.92,0.851,2.016,0.851,3.283c0,1.023-0.203,1.998-0.609,2.922
					c-0.407,0.926-0.992,1.696-1.758,2.316c-0.469,0.383-0.983,0.737-1.544,1.063c-0.563,0.324-1.183,0.601-1.86,0.826
					c-0.678,0.227-1.415,0.402-2.21,0.53c-0.797,0.128-1.687,0.192-2.674,0.192h-3.625v7.185h-6.92v-21.969H323.278
					 M319.506,141.706h0.479c0.654,0,1.271-0.005,1.852-0.014c0.579-0.01,1.085-0.045,1.517-0.104
					c0.37-0.05,0.762-0.146,1.175-0.287c0.413-0.145,0.73-0.303,0.953-0.479c0.468-0.364,0.785-0.742,0.952-1.136
					c0.166-0.395,0.25-0.926,0.25-1.594c0-0.621-0.186-1.153-0.556-1.602c-0.37-0.447-0.813-0.755-1.331-0.923
					c-0.654-0.226-1.279-0.356-1.879-0.392c-0.6-0.034-1.408-0.051-2.435-0.051h-0.979L319.506,141.706 M323.278,130.025h-10.692
					c-0.553,0-1,0.446-1,1v21.969c0,0.554,0.447,1,1,1h6.92c0.553,0,1-0.446,1-1v-6.185h2.625c1.033,0,1.984-0.069,2.832-0.205
					c0.848-0.137,1.645-0.328,2.369-0.57c0.738-0.246,1.428-0.552,2.044-0.908c0.604-0.35,1.168-0.738,1.677-1.154
					c0.882-0.713,1.569-1.619,2.039-2.688c0.462-1.047,0.694-2.165,0.694-3.322c0-1.451-0.336-2.73-0.998-3.809
					c-0.659-1.068-1.597-1.932-2.786-2.563c-1.02-0.545-2.166-0.947-3.41-1.196C326.379,130.149,324.927,130.025,323.278,130.025
					L323.278,130.025z M320.506,140.705v-4.579c1.014,0,1.784,0.018,2.354,0.051c0.502,0.029,1.044,0.143,1.611,0.338
					c0.354,0.115,0.639,0.313,0.887,0.613c0.224,0.271,0.326,0.575,0.326,0.965c0,0.662-0.094,1.021-0.171,1.205
					c-0.097,0.227-0.32,0.481-0.646,0.734c-0.082,0.064-0.267,0.186-0.667,0.324c-0.347,0.119-0.675,0.2-0.978,0.24
					c-0.398,0.055-0.869,0.087-1.402,0.096C321.401,140.699,320.964,140.703,320.506,140.705L320.506,140.705z"/>
			</g>
		</g>
		<path fill="#314C79" d="M342.426,140.715c0-4.695,3.81-8.416,8.437-8.479v-18.83l0,0c-14.783,0-26.699,11.905-26.699,26.62
			c0,7.378,2.988,13.951,7.86,18.727l18.842,18.799v-28.34C346.235,149.155,342.426,145.433,342.426,140.715z"/>
		<path fill="#5ABAA2" d="M377.514,140.027c0-10.964-6.606-20.366-16.076-24.451c-3.232-1.389-6.814-2.169-10.574-2.169v18.824
			c0.039,0,0.077-0.003,0.112-0.003c4.741,0,8.594,3.747,8.594,8.487c0,4.756-3.854,8.5-8.594,8.5c-0.035,0-0.074-0.004-0.112-0.004
			v28.34l0.02,0.016l7.328-7.273l11.563-11.554C374.555,153.978,377.514,147.404,377.514,140.027z"/>
		<g enable-background="new    ">
			<g>
				<path fill="#314C79" d="M387.392,153.492c-0.276,0-0.5-0.224-0.5-0.5V140.43l-4.072,7.634c-0.087,0.163-0.257,0.265-0.44,0.265
					h-4.719c-0.185,0-0.354-0.102-0.44-0.265l-4.071-7.634v12.562c0,0.276-0.224,0.5-0.5,0.5h-6.513c-0.276,0-0.5-0.224-0.5-0.5
					v-21.968c0-0.275,0.224-0.5,0.5-0.5h7.974c0.182,0,0.348,0.098,0.437,0.255l5.667,10.069l5.651-10.069
					c0.089-0.157,0.255-0.255,0.437-0.255h7.973c0.276,0,0.5,0.225,0.5,0.5v21.968c0,0.276-0.224,0.5-0.5,0.5H387.392z"/>
				<path fill="#FFFFFF" d="M394.272,131.025v21.968h-6.88V138.43l-5.014,9.398h-4.718l-5.013-9.398v14.563h-6.513v-21.968h7.974
					l6.104,10.845l6.087-10.845H394.272 M394.272,130.025H386.3c-0.361,0-0.695,0.194-0.872,0.511l-5.216,9.293l-5.231-9.294
					c-0.177-0.315-0.51-0.51-0.871-0.51h-7.974c-0.553,0-1,0.446-1,1v21.968c0,0.553,0.447,1,1,1h6.513c0.554,0,1-0.447,1-1V142.43
					l3.13,5.869c0.174,0.326,0.515,0.529,0.883,0.529h4.719c0.369,0,0.709-0.203,0.882-0.529l3.132-5.869v10.563
					c0,0.553,0.447,1,1,1h6.88c0.553,0,1-0.447,1-1v-21.968C395.272,130.471,394.825,130.025,394.272,130.025L394.272,130.025z"/>
			</g>
			<g>
				<path fill="#314C79" d="M399.971,153.492c-0.276,0-0.5-0.224-0.5-0.5v-21.968c0-0.275,0.224-0.5,0.5-0.5h18.63
					c0.276,0,0.5,0.225,0.5,0.5v4.189c0,0.276-0.224,0.5-0.5,0.5h-11.249v2.852h10.322c0.275,0,0.5,0.224,0.5,0.5v4.189
					c0,0.276-0.225,0.5-0.5,0.5h-10.322v4.547h11.249c0.276,0,0.5,0.225,0.5,0.5v4.189c0,0.276-0.224,0.5-0.5,0.5L399.971,153.492
					L399.971,153.492z"/>
				<path fill="#FFFFFF" d="M418.601,131.025v4.19h-11.749v3.851h10.822v4.19h-10.822v5.547h11.749v4.188h-18.63v-21.968
					L418.601,131.025 M418.601,130.025h-18.63c-0.553,0-1,0.446-1,1v21.968c0,0.553,0.447,1,1,1h18.63c0.553,0,1-0.447,1-1v-4.189
					c0-0.553-0.447-1-1-1h-10.749v-3.547h9.822c0.553,0,1-0.446,1-1v-4.189c0-0.553-0.447-1-1-1h-9.822v-1.852h10.749
					c0.553,0,1-0.446,1-1v-4.189C419.601,130.471,419.154,130.025,418.601,130.025L418.601,130.025z"/>
			</g>
			<g>
				<path fill="#314C79" d="M435.879,153.95c-4.423,0-8.009-1.04-10.656-3.092c-2.688-2.081-4.05-5.066-4.05-8.871
					c0-3.585,1.359-6.501,4.042-8.666c2.65-2.141,6.309-3.225,10.868-3.225c2.338,0,4.27,0.182,5.741,0.537
					c1.447,0.351,2.977,0.836,4.54,1.444c0.192,0.074,0.319,0.261,0.319,0.466v5.148c0,0.275-0.224,0.5-0.5,0.5h-0.63
					c-0.094,0-0.186-0.025-0.265-0.076c-0.331-0.206-0.809-0.497-1.429-0.873c-0.604-0.367-1.199-0.684-1.768-0.938
					c-0.658-0.301-1.436-0.563-2.313-0.782c-0.859-0.215-1.786-0.324-2.755-0.324c-1.128,0-2.17,0.142-3.095,0.421
					c-0.907,0.274-1.729,0.702-2.44,1.271c-0.662,0.536-1.197,1.231-1.591,2.063c-0.392,0.836-0.59,1.827-0.59,2.943
					c0,2.425,0.729,4.152,2.226,5.281c1.521,1.146,3.646,1.729,6.321,1.729c0.243,0,0.527-0.005,0.856-0.015
					c0.136-0.005,0.263-0.009,0.384-0.015v-3.338h-4.847c-0.276,0-0.5-0.224-0.5-0.5v-4.115c0-0.276,0.224-0.5,0.5-0.5h12.042
					c0.275,0,0.5,0.224,0.5,0.5l0.002,10.813c0,0.217-0.141,0.408-0.347,0.476c-1.218,0.396-2.82,0.789-4.768,1.166
					C439.729,153.758,437.777,153.95,435.879,153.95z"/>
				<path fill="#FFFFFF" d="M436.083,130.598c2.307,0,4.181,0.174,5.624,0.522c1.442,0.349,2.935,0.824,4.478,1.425v5.147h-0.63
					c-0.332-0.207-0.812-0.499-1.433-0.877c-0.625-0.38-1.231-0.702-1.823-0.967c-0.69-0.315-1.489-0.585-2.396-0.813
					c-0.907-0.227-1.866-0.339-2.876-0.339c-1.185,0-2.263,0.146-3.238,0.441c-0.976,0.296-1.845,0.748-2.607,1.357
					c-0.729,0.59-1.305,1.338-1.731,2.242c-0.424,0.905-0.638,1.957-0.638,3.156c0,2.568,0.809,4.462,2.425,5.681
					c1.615,1.22,3.823,1.829,6.622,1.829c0.247,0,0.536-0.005,0.871-0.016c0.332-0.01,0.62-0.023,0.869-0.043v-4.309h-5.347v-4.115
					h12.042l0.002,10.813c-1.209,0.394-2.778,0.776-4.708,1.149c-1.933,0.375-3.833,0.562-5.709,0.562
					c-4.329,0-7.778-0.995-10.351-2.987c-2.57-1.99-3.855-4.816-3.855-8.476c0-3.442,1.285-6.201,3.855-8.276
					C428.099,131.635,431.618,130.598,436.083,130.598 M436.083,129.598c-4.678,0-8.439,1.121-11.183,3.334
					c-2.806,2.266-4.229,5.313-4.229,9.056c0,3.968,1.428,7.085,4.244,9.267c2.736,2.121,6.426,3.196,10.962,3.196
					c1.931,0,3.916-0.194,5.898-0.579c1.966-0.381,3.59-0.777,4.827-1.181c0.412-0.136,0.69-0.519,0.69-0.951l-0.002-10.813
					c0-0.553-0.448-1-1-1h-12.04c-0.554,0-1,0.447-1,1v4.115c0,0.553,0.446,1,1,1h4.347v2.354c-0.281,0.008-0.526,0.012-0.74,0.012
					c-2.563,0-4.59-0.548-6.02-1.627c-1.364-1.028-2.027-2.626-2.027-4.883c0-1.043,0.184-1.962,0.543-2.731
					c0.359-0.762,0.851-1.397,1.456-1.891c0.655-0.521,1.421-0.921,2.269-1.177c0.877-0.265,1.869-0.399,2.948-0.399
					c0.928,0,1.813,0.104,2.634,0.309c0.849,0.213,1.597,0.466,2.223,0.752c0.558,0.248,1.133,0.555,1.72,0.912
					c0.618,0.375,1.094,0.664,1.423,0.871c0.159,0.099,0.342,0.15,0.529,0.15h0.63c0.553,0,1-0.447,1-1v-5.148
					c0-0.412-0.253-0.781-0.638-0.932c-1.586-0.617-3.137-1.109-4.605-1.464C440.43,129.783,438.46,129.598,436.083,129.598
					L436.083,129.598z"/>
			</g>
			<g>
				<path fill="#314C79" d="M467.587,153.492c-0.207,0-0.394-0.128-0.467-0.321l-1.597-4.162h-7.971l-1.599,4.162
					c-0.073,0.193-0.26,0.321-0.467,0.321h-6.937c-0.168,0-0.324-0.084-0.417-0.224c-0.093-0.141-0.108-0.317-0.043-0.473
					l9.306-21.968c0.078-0.185,0.259-0.305,0.46-0.305h7.547c0.201,0,0.382,0.12,0.46,0.305l9.307,21.968
					c0.064,0.154,0.05,0.332-0.043,0.473c-0.094,0.14-0.249,0.224-0.417,0.224H467.587z M463.62,144.025l-2.081-5.362l-2.081,5.361
					L463.62,144.025z"/>
				<path fill="#FFFFFF" d="M465.404,131.025l9.307,21.968h-7.124l-1.719-4.484h-8.658l-1.722,4.484h-6.937l9.306-21.968H465.404
					 M464.35,144.525l-2.813-7.244l-2.813,7.243L464.35,144.525 M465.404,130.025h-7.547c-0.4,0-0.764,0.24-0.921,0.61
					l-9.306,21.968c-0.131,0.309-0.099,0.662,0.087,0.94c0.186,0.28,0.499,0.448,0.834,0.448h6.937c0.414,0,0.785-0.255,0.935-0.642
					l1.475-3.844h7.283l1.473,3.843c0.148,0.388,0.521,0.643,0.935,0.643h7.124c0.335,0,0.647-0.168,0.834-0.448
					c0.185-0.279,0.218-0.633,0.087-0.94l-9.306-21.968C466.169,130.265,465.805,130.025,465.404,130.025L465.404,130.025z
					 M460.187,143.524l1.352-3.479l1.352,3.479L460.187,143.524L460.187,143.524z"/>
			</g>
		</g>
	</g>
</g>
</svg>
